<svg width="508" height="368" viewBox="0 0 508 368" fill="none" xmlns="http://www.w3.org/2000/svg">
<g filter="url(#filter0_d_0_41)">
<path d="M118.284 107.764C119.342 108.422 120.381 109.093 121.418 109.785C132.377 137.357 138.634 166.572 139.929 196.214C140.089 199.642 140.17 203.064 140.172 206.482C140.267 232.108 136.537 257.606 129.107 282.132C128.715 283.423 128.315 284.709 127.906 285.99C127.613 286.909 127.314 287.837 126.99 288.749C126.646 289.216 126.307 289.675 125.968 290.134C125.944 290.154 125.923 290.188 125.899 290.209C125.762 290.394 125.626 290.579 125.503 290.761C124.917 291.547 124.322 292.329 123.736 293.116L124.23 293.149L125.467 293.228L125.462 293.236C125.046 293.228 124.623 293.214 124.204 293.192C124.052 293.192 123.886 293.196 123.73 293.182C123.592 293.18 123.445 293.172 123.306 293.169C105.466 292.686 87.2092 291.795 70.9751 284.5C53.9831 276.857 39.5694 260.334 40.3019 241.723C40.405 239.286 40.7748 236.867 41.4048 234.51C41.6677 233.526 41.9785 232.558 42.3114 231.593C44.3377 225.685 47.9011 220.422 52.6353 216.347C57.3694 212.272 63.1035 209.531 69.248 208.406C75.3925 207.282 81.7256 207.814 87.5963 209.948C93.4669 212.082 98.6633 215.742 102.651 220.55C97.7813 201.412 76.8758 191.646 58.0468 185.709C39.2039 179.775 18.004 173.568 8.3773 156.325C3.00256 146.729 2.87314 135.549 6.38024 125.225C6.48701 124.917 6.59914 124.6 6.7197 124.288C11.1367 112.141 19.9745 102.108 31.4671 96.1935C53.0002 85.5322 79.1655 89.2939 101.229 98.8095C107.132 101.359 112.833 104.352 118.284 107.764Z" fill="#F2F2F2"/>
<path d="M56.566 231.672C73.4911 233.228 89.4664 240.189 102.131 251.525C112.916 261.287 120.875 273.773 125.171 287.672C125.421 288.467 125.649 289.261 125.863 290.058C126.29 289.244 126.706 288.411 127.116 287.587C127.381 287.059 127.65 286.523 127.906 285.99C127.613 286.909 127.314 287.837 126.99 288.749C126.646 289.216 126.307 289.675 125.968 290.134C125.944 290.154 125.923 290.188 125.899 290.209C125.763 290.394 125.626 290.579 125.503 290.761C124.917 291.547 124.322 292.33 123.736 293.116L124.23 293.149L125.467 293.228L125.462 293.236C125.047 293.228 124.623 293.214 124.204 293.192C124.052 293.192 123.886 293.196 123.73 293.183C123.679 292.941 123.615 292.703 123.55 292.465C119.165 274.513 108.431 258.756 93.3316 248.103C78.2321 237.45 59.7874 232.622 41.405 234.51C41.6679 233.526 41.9787 232.558 42.3116 231.593C47.0563 231.205 51.8258 231.232 56.566 231.672Z" fill="white"/>
<path d="M112.8 160.885C119.591 165.973 125.603 172.026 130.644 178.852C133.271 182.491 135.553 186.366 137.46 190.428C138.365 192.312 139.188 194.253 139.93 196.214C140.089 199.642 140.17 203.064 140.172 206.482C139.543 203.898 138.776 201.35 137.875 198.849C137.406 197.475 136.885 196.129 136.332 194.798C130.126 179.891 118.882 168.121 105.621 159.172C91.4118 149.598 75.3922 142.41 59.1572 137.065C42.5191 131.562 25.2691 128.119 7.79325 126.814C7.39858 126.782 7.03144 126.599 6.76828 126.303C6.50513 126.007 6.36624 125.621 6.38052 125.225C6.3671 124.881 6.4889 124.544 6.71998 124.288C6.84275 124.168 6.99199 124.078 7.15576 124.026C7.31952 123.974 7.49323 123.961 7.6629 123.988C9.81949 124.149 11.9705 124.32 14.1214 124.548C32.0179 126.391 49.6157 130.453 66.5096 136.64C82.8181 142.591 98.9583 150.308 112.8 160.885Z" fill="white"/>
<path d="M24.1255 78.4418C27.4292 78.4418 30.1073 75.7637 30.1073 72.4601C30.1073 69.1564 27.4292 66.4783 24.1255 66.4783C20.8219 66.4783 18.1437 69.1564 18.1437 72.4601C18.1437 75.7637 20.8219 78.4418 24.1255 78.4418Z" fill="#F2F2F2"/>
<path d="M391.609 127.682H120.071V358.962H391.609V127.682Z" fill="white"/>
<path d="M392.398 359.752H119.282V126.893H392.398V359.752ZM120.861 358.173H390.819V128.471H120.861V358.173Z" fill="#3F3D56"/>
<path d="M289.782 172.675H221.898V358.962H289.782V172.675Z" fill="#6C63FF"/>
<path d="M289.782 172.675H221.898V358.962H289.782V172.675Z" fill="#6C63FF"/>
<path opacity="0.2" d="M120.861 144.653V182.177L391.609 199.513L390.811 153.211L120.861 144.653Z" fill="#2B2B2B"/>
<path d="M407.396 106.37H104.284V172.675H407.396V106.37Z" fill="white"/>
<path d="M408.185 173.464H103.495V105.58H408.185V173.464ZM105.074 171.886H406.606V107.159H105.074V171.886Z" fill="#3F3D56"/>
<path d="M289.782 100.055H221.898V171.886H289.782V100.055Z" fill="#6C63FF"/>
<path d="M248.572 37.4245C266.491 63.9875 249.608 106.71 249.608 106.71C249.608 106.71 203.671 106.366 185.752 79.8029C167.832 53.2399 184.716 10.5171 184.716 10.5171C184.716 10.5171 230.652 10.8615 248.572 37.4245Z" fill="#6C63FF"/>
<path d="M256.794 37.4245C238.874 63.9875 255.758 106.71 255.758 106.71C255.758 106.71 301.694 106.366 319.614 79.8029C337.533 53.2399 320.65 10.5171 320.65 10.5171C320.65 10.5171 274.713 10.8615 256.794 37.4245Z" fill="#6C63FF"/>
<path d="M208.479 57.4295C212.402 57.4295 215.583 54.2489 215.583 50.3254C215.583 46.4018 212.402 43.2212 208.479 43.2212C204.555 43.2212 201.375 46.4018 201.375 50.3254C201.375 54.2489 204.555 57.4295 208.479 57.4295Z" fill="#3F3D56"/>
<path d="M251.104 129.261C255.027 129.261 258.208 126.08 258.208 122.157C258.208 118.233 255.027 115.052 251.104 115.052C247.18 115.052 244 118.233 244 122.157C244 126.08 247.18 129.261 251.104 129.261Z" fill="#3F3D56"/>
<path d="M251.104 284.763C255.027 284.763 258.208 281.583 258.208 277.659C258.208 273.736 255.027 270.555 251.104 270.555C247.18 270.555 244 273.736 244 277.659C244 281.583 247.18 284.763 251.104 284.763Z" fill="#3F3D56"/>
<path d="M227.423 81.1102C230.039 81.1102 232.159 78.9897 232.159 76.3741C232.159 73.7584 230.039 71.6379 227.423 71.6379C224.808 71.6379 222.687 73.7584 222.687 76.3741C222.687 78.9897 224.808 81.1102 227.423 81.1102Z" fill="#3F3D56"/>
<path d="M298.465 40.8532C301.081 40.8532 303.201 38.7328 303.201 36.1171C303.201 33.5014 301.081 31.381 298.465 31.381C295.849 31.381 293.729 33.5014 293.729 36.1171C293.729 38.7328 295.849 40.8532 298.465 40.8532Z" fill="#3F3D56"/>
<path d="M267.68 152.152C270.296 152.152 272.416 150.031 272.416 147.416C272.416 144.8 270.296 142.68 267.68 142.68C265.065 142.68 262.944 144.8 262.944 147.416C262.944 150.031 265.065 152.152 267.68 152.152Z" fill="#3F3D56"/>
<path d="M239.264 213.722C241.879 213.722 244 211.601 244 208.985C244 206.37 241.879 204.249 239.264 204.249C236.648 204.249 234.527 206.37 234.527 208.985C234.527 211.601 236.648 213.722 239.264 213.722Z" fill="#3F3D56"/>
<path d="M263.734 235.034C266.349 235.034 268.47 232.914 268.47 230.298C268.47 227.682 266.349 225.562 263.734 225.562C261.118 225.562 258.997 227.682 258.997 230.298C258.997 232.914 261.118 235.034 263.734 235.034Z" fill="#3F3D56"/>
<path d="M258.208 324.231C260.824 324.231 262.944 322.11 262.944 319.495C262.944 316.879 260.824 314.759 258.208 314.759C255.592 314.759 253.472 316.879 253.472 319.495C253.472 322.11 255.592 324.231 258.208 324.231Z" fill="#3F3D56"/>
<path d="M495.18 236.271H350.7V359.332H495.18V236.271Z" fill="white"/>
<path d="M495.6 359.752H350.28V235.851H495.6V359.752ZM351.12 358.912H494.76V236.691H351.12V358.912Z" fill="#3F3D56"/>
<path d="M441 260.211H404.88V359.332H441V260.211Z" fill="#6C63FF"/>
<path d="M441 260.211H404.88V359.332H441V260.211Z" fill="#6C63FF"/>
<path opacity="0.2" d="M351.12 245.302V265.268L495.18 274.491L494.756 249.855L351.12 245.302Z" fill="#2B2B2B"/>
<path d="M503.58 224.931H342.3V260.212H503.58V224.931Z" fill="white"/>
<path d="M504 260.631H341.88V224.511H504V260.631ZM342.72 259.791H503.16V225.351H342.72V259.791Z" fill="#3F3D56"/>
<path d="M441 221.571H404.88V259.791H441V221.571Z" fill="#6C63FF"/>
<path d="M419.072 188.247C428.607 202.381 419.624 225.113 419.624 225.113C419.624 225.113 395.182 224.929 385.647 210.796C376.112 196.662 385.096 173.93 385.096 173.93C385.096 173.93 409.538 174.113 419.072 188.247Z" fill="#6C63FF"/>
<path d="M423.447 188.247C413.913 202.381 422.896 225.113 422.896 225.113C422.896 225.113 447.338 224.929 456.873 210.796C466.407 196.662 457.424 173.93 457.424 173.93C457.424 173.93 432.982 174.113 423.447 188.247Z" fill="#6C63FF"/>
<path d="M397.74 198.891C399.827 198.891 401.52 197.199 401.52 195.111C401.52 193.024 399.827 191.331 397.74 191.331C395.652 191.331 393.96 193.024 393.96 195.111C393.96 197.199 395.652 198.891 397.74 198.891Z" fill="#3F3D56"/>
<path d="M420.42 237.111C422.507 237.111 424.2 235.419 424.2 233.331C424.2 231.244 422.507 229.551 420.42 229.551C418.332 229.551 416.64 231.244 416.64 233.331C416.64 235.419 418.332 237.111 420.42 237.111Z" fill="#3F3D56"/>
<path d="M420.42 319.852C422.507 319.852 424.2 318.159 424.2 316.072C424.2 313.984 422.507 312.292 420.42 312.292C418.332 312.292 416.64 313.984 416.64 316.072C416.64 318.159 418.332 319.852 420.42 319.852Z" fill="#3F3D56"/>
<path d="M407.82 211.491C409.212 211.491 410.34 210.363 410.34 208.971C410.34 207.58 409.212 206.451 407.82 206.451C406.428 206.451 405.3 207.58 405.3 208.971C405.3 210.363 406.428 211.491 407.82 211.491Z" fill="#3F3D56"/>
<path d="M445.62 190.071C447.012 190.071 448.14 188.943 448.14 187.551C448.14 186.16 447.012 185.031 445.62 185.031C444.228 185.031 443.1 186.16 443.1 187.551C443.1 188.943 444.228 190.071 445.62 190.071Z" fill="#3F3D56"/>
<path d="M429.24 249.291C430.632 249.291 431.76 248.163 431.76 246.771C431.76 245.38 430.632 244.251 429.24 244.251C427.848 244.251 426.72 245.38 426.72 246.771C426.72 248.163 427.848 249.291 429.24 249.291Z" fill="#3F3D56"/>
<path d="M414.12 282.051C415.512 282.051 416.64 280.923 416.64 279.531C416.64 278.14 415.512 277.011 414.12 277.011C412.728 277.011 411.6 278.14 411.6 279.531C411.6 280.923 412.728 282.051 414.12 282.051Z" fill="#3F3D56"/>
<path d="M427.14 293.392C428.532 293.392 429.66 292.263 429.66 290.872C429.66 289.48 428.532 288.352 427.14 288.352C425.748 288.352 424.62 289.48 424.62 290.872C424.62 292.263 425.748 293.392 427.14 293.392Z" fill="#3F3D56"/>
<path d="M424.2 340.852C425.591 340.852 426.72 339.723 426.72 338.332C426.72 336.94 425.591 335.812 424.2 335.812C422.808 335.812 421.68 336.94 421.68 338.332C421.68 339.723 422.808 340.852 424.2 340.852Z" fill="#3F3D56"/>
<path d="M246.577 302.635C247.84 299.973 241.987 294.553 233.505 290.53C225.024 286.507 217.124 285.405 215.861 288.068C214.598 290.73 220.45 296.15 228.932 300.173C237.414 304.196 245.314 305.298 246.577 302.635Z" fill="#2F2E41"/>
<path d="M316.579 330.061C318.838 328.169 315.785 320.801 309.758 313.603C303.732 306.405 297.015 302.104 294.755 303.996C292.495 305.887 295.549 313.256 301.575 320.454C307.602 327.652 314.319 331.953 316.579 330.061Z" fill="#2F2E41"/>
<path d="M269.509 345.121C288.284 345.121 303.504 329.901 303.504 311.126C303.504 292.351 288.284 277.13 269.509 277.13C250.734 277.13 235.513 292.351 235.513 311.126C235.513 329.901 250.734 345.121 269.509 345.121Z" fill="#2F2E41"/>
<path d="M283.898 337.805H273.57V356.309H283.898V337.805Z" fill="#2F2E41"/>
<path d="M263.242 337.805H252.915V356.309H263.242V337.805Z" fill="#2F2E41"/>
<path d="M275.291 359.752C280.044 359.752 283.898 358.307 283.898 356.524C283.898 354.742 280.044 353.297 275.291 353.297C270.538 353.297 266.685 354.742 266.685 356.524C266.685 358.307 270.538 359.752 275.291 359.752Z" fill="#2F2E41"/>
<path d="M254.636 359.321C259.389 359.321 263.242 357.876 263.242 356.094C263.242 354.312 259.389 352.867 254.636 352.867C249.883 352.867 246.03 354.312 246.03 356.094C246.03 357.876 249.883 359.321 254.636 359.321Z" fill="#2F2E41"/>
<path d="M258.835 268.392C261.87 256.168 275.269 248.974 288.763 252.324C302.256 255.675 310.734 268.301 307.698 280.526C304.663 292.75 294.592 292.79 281.098 289.439C267.605 286.089 255.799 280.617 258.835 268.392Z" fill="#E6E6E6"/>
<path d="M264.426 315.286C270.686 315.286 275.761 310.212 275.761 303.952C275.761 297.693 270.686 292.618 264.426 292.618C258.167 292.618 253.092 297.693 253.092 303.952C253.092 310.212 258.167 315.286 264.426 315.286Z" fill="white"/>
<path d="M259.768 303.668C261.855 303.668 263.546 301.976 263.546 299.89C263.546 297.803 261.855 296.112 259.768 296.112C257.682 296.112 255.99 297.803 255.99 299.89C255.99 301.976 257.682 303.668 259.768 303.668Z" fill="#3F3D56"/>
<path d="M271.536 327.566C271.714 328.542 271.698 329.544 271.488 330.514C271.279 331.484 270.881 332.403 270.316 333.219C269.751 334.035 269.032 334.732 268.198 335.27C267.364 335.807 266.432 336.176 265.456 336.353C264.48 336.531 263.478 336.515 262.508 336.305C261.538 336.096 260.619 335.698 259.803 335.133C258.987 334.568 258.29 333.848 257.752 333.015C257.215 332.181 256.846 331.249 256.669 330.273L256.666 330.258C255.923 326.152 259.098 324.699 263.204 323.955C267.31 323.212 270.793 323.46 271.536 327.566Z" fill="white"/>
<path d="M338.24 55.096C346.916 51.5123 353.038 46.399 351.913 43.6751C350.788 40.9513 342.842 41.6484 334.166 45.2321C325.489 48.8159 319.367 53.9292 320.492 56.653C321.617 59.3769 329.563 58.6798 338.24 55.096Z" fill="#2F2E41"/>
<path d="M421.563 78.5588C423.822 76.6669 420.769 69.2983 414.742 62.1005C408.716 54.9027 401.998 50.6015 399.739 52.4934C397.479 54.3853 400.533 61.7539 406.559 68.9517C412.586 76.1494 419.303 80.4507 421.563 78.5588Z" fill="#2F2E41"/>
<path d="M374.493 93.6187C393.268 93.6187 408.488 78.3985 408.488 59.6234C408.488 40.8483 393.268 25.6281 374.493 25.6281C355.718 25.6281 340.497 40.8483 340.497 59.6234C340.497 78.3985 355.718 93.6187 374.493 93.6187Z" fill="#2F2E41"/>
<path d="M388.882 86.3032H378.554V104.807H388.882V86.3032Z" fill="#2F2E41"/>
<path d="M368.226 86.3032H357.899V104.807H368.226V86.3032Z" fill="#2F2E41"/>
<path d="M380.275 108.249C385.028 108.249 388.882 106.805 388.882 105.022C388.882 103.24 385.028 101.795 380.275 101.795C375.522 101.795 371.669 103.24 371.669 105.022C371.669 106.805 375.522 108.249 380.275 108.249Z" fill="#2F2E41"/>
<path d="M359.62 107.819C364.373 107.819 368.226 106.374 368.226 104.592C368.226 102.809 364.373 101.364 359.62 101.364C354.867 101.364 351.013 102.809 351.013 104.592C351.013 106.374 354.867 107.819 359.62 107.819Z" fill="#2F2E41"/>
<path d="M363.818 16.8903C366.854 4.66557 380.253 -2.52841 393.747 0.822074C407.24 4.17256 415.718 16.7988 412.682 29.0235C409.647 41.2482 399.576 41.2877 386.082 37.9372C372.589 34.5866 360.783 29.115 363.818 16.8903Z" fill="#6C63FF"/>
<path d="M369.41 63.7842C375.67 63.7842 380.744 58.7097 380.744 52.4501C380.744 46.1905 375.67 41.1161 369.41 41.1161C363.151 41.1161 358.076 46.1905 358.076 52.4501C358.076 58.7097 363.151 63.7842 369.41 63.7842Z" fill="white"/>
<path d="M364.752 57.6909C366.839 57.6909 368.53 55.9994 368.53 53.9129C368.53 51.8264 366.839 50.1349 364.752 50.1349C362.666 50.1349 360.974 51.8264 360.974 53.9129C360.974 55.9994 362.666 57.6909 364.752 57.6909Z" fill="#3F3D56"/>
<path d="M376.52 76.0639C376.879 78.0354 376.44 80.0689 375.3 81.7168C374.16 83.3647 372.411 84.4921 370.44 84.851C368.468 85.2099 366.435 84.7709 364.787 83.6306C363.139 82.4902 362.012 80.742 361.653 78.7704L361.65 78.7558C360.907 74.6495 364.081 73.1964 368.188 72.453C372.294 71.7097 375.777 71.9576 376.52 76.0639Z" fill="white"/>
<path d="M83.6335 345.121C102.409 345.121 117.629 329.901 117.629 311.125C117.629 292.35 102.409 277.13 83.6335 277.13C64.8584 277.13 49.6382 292.35 49.6382 311.125C49.6382 329.901 64.8584 345.121 83.6335 345.121Z" fill="#2F2E41"/>
<path d="M78.4697 337.805H68.142V356.309H78.4697V337.805Z" fill="#2F2E41"/>
<path d="M99.1251 337.805H88.7974V356.309H99.1251V337.805Z" fill="#2F2E41"/>
<path d="M76.7484 359.752C81.5016 359.752 85.3548 358.307 85.3548 356.524C85.3548 354.742 81.5016 353.297 76.7484 353.297C71.9952 353.297 68.142 354.742 68.142 356.524C68.142 358.307 71.9952 359.752 76.7484 359.752Z" fill="#2F2E41"/>
<path d="M97.4038 359.321C102.157 359.321 106.01 357.876 106.01 356.094C106.01 354.312 102.157 352.867 97.4038 352.867C92.6506 352.867 88.7974 354.312 88.7974 356.094C88.7974 357.876 92.6506 359.321 97.4038 359.321Z" fill="#2F2E41"/>
<path d="M50.6569 279.511C47.912 267.218 56.6865 254.796 70.2555 251.766C83.8245 248.736 97.0495 256.246 99.7944 268.539C102.539 280.832 93.5467 285.366 79.9778 288.396C66.4089 291.426 53.4019 291.804 50.6569 279.511Z" fill="#6C63FF"/>
<path d="M120.267 296.27C127.629 288.902 131.722 281.056 129.409 278.744C127.096 276.433 119.253 280.533 111.891 287.9C104.528 295.268 100.435 303.115 102.748 305.426C105.061 307.737 112.905 303.638 120.267 296.27Z" fill="#2F2E41"/>
<path d="M56.2321 307.794C58.5452 305.483 54.4519 297.636 47.0897 290.269C39.7274 282.901 31.884 278.801 29.571 281.112C27.2579 283.424 31.3512 291.27 38.7135 298.638C46.0757 306.006 53.9191 310.105 56.2321 307.794Z" fill="#2F2E41"/>
<path d="M82.2032 317.926C88.62 317.926 93.8218 312.725 93.8218 306.308C93.8218 299.891 88.62 294.689 82.2032 294.689C75.7864 294.689 70.5845 299.891 70.5845 306.308C70.5845 312.725 75.7864 317.926 82.2032 317.926Z" fill="white"/>
<path d="M82.2032 310.181C84.3422 310.181 86.0761 308.447 86.0761 306.308C86.0761 304.169 84.3422 302.435 82.2032 302.435C80.0643 302.435 78.3303 304.169 78.3303 306.308C78.3303 308.447 80.0643 310.181 82.2032 310.181Z" fill="#3F3D56"/>
<path d="M91.4264 327.796C91.6041 328.772 91.5878 329.774 91.3784 330.744C91.169 331.714 90.7706 332.633 90.206 333.449C89.6414 334.265 88.9215 334.962 88.0876 335.499C87.2537 336.037 86.3221 336.405 85.3458 336.583C84.3696 336.761 83.368 336.745 82.398 336.535C81.4281 336.326 80.5089 335.927 79.6929 335.363C78.877 334.798 78.1802 334.078 77.6424 333.244C77.1047 332.411 76.7364 331.479 76.5587 330.503L76.5561 330.488C75.8127 326.382 78.9876 324.929 83.0939 324.185C87.2002 323.442 90.683 323.69 91.4264 327.796Z" fill="white"/>
</g>
<defs>
<filter id="filter0_d_0_41" x="0" y="0" width="508" height="367.752" filterUnits="userSpaceOnUse" color-interpolation-filters="sRGB">
<feFlood flood-opacity="0" result="BackgroundImageFix"/>
<feColorMatrix in="SourceAlpha" type="matrix" values="0 0 0 0 0 0 0 0 0 0 0 0 0 0 0 0 0 0 127 0" result="hardAlpha"/>
<feOffset dy="4"/>
<feGaussianBlur stdDeviation="2"/>
<feComposite in2="hardAlpha" operator="out"/>
<feColorMatrix type="matrix" values="0 0 0 0 0 0 0 0 0 0 0 0 0 0 0 0 0 0 0.25 0"/>
<feBlend mode="normal" in2="BackgroundImageFix" result="effect1_dropShadow_0_41"/>
<feBlend mode="normal" in="SourceGraphic" in2="effect1_dropShadow_0_41" result="shape"/>
</filter>
</defs>
</svg>
